<svg width="19" height="16" viewBox="0 0 19 16" fill="none" xmlns="http://www.w3.org/2000/svg">
<path d="M2.92381 7.1663L9.28781 13.5303L15.6518 7.1663C16.2145 6.60364 16.5306 5.84052 16.5306 5.0448C16.5306 4.24908 16.2145 3.48596 15.6518 2.9233C15.3732 2.6447 15.0425 2.4237 14.6785 2.27293C14.3144 2.12215 13.9243 2.04455 13.5303 2.04455C12.7346 2.04455 11.9715 2.36064 11.4088 2.9233L9.28781 5.0443L7.16681 2.9243C6.60272 2.36919 5.84213 2.05947 5.05072 2.0626C4.25931 2.06573 3.50119 2.38145 2.94151 2.94101C2.38183 3.50056 2.06592 4.2586 2.0626 5.05001C2.05929 5.84142 2.36883 6.60208 2.92381 7.1663ZM8.58081 1.5083L9.28781 2.2153L9.99481 1.5083C10.4584 1.04067 11.0097 0.669204 11.6172 0.415229C12.2247 0.161253 12.8764 0.0297706 13.5348 0.0283287C14.1933 0.0268869 14.8455 0.155514 15.4541 0.406827C16.0628 0.658139 16.6157 1.02719 17.0813 1.49278C17.5469 1.95838 17.916 2.51135 18.1673 3.11996C18.4186 3.72856 18.5472 4.38082 18.5458 5.03927C18.5443 5.69772 18.4129 6.3494 18.1589 6.9569C17.9049 7.5644 17.5334 8.11575 17.0658 8.5793L9.99581 15.6503C9.90293 15.7433 9.79264 15.817 9.67125 15.8674C9.54985 15.9177 9.41972 15.9436 9.28831 15.9436C9.15689 15.9436 9.02676 15.9177 8.90537 15.8674C8.78397 15.817 8.67368 15.7433 8.58081 15.6503L1.50981 8.5803C1.03582 8.11824 0.658293 7.56666 0.399135 6.95756C0.139977 6.34846 0.00434372 5.69396 0.000102636 5.03204C-0.00413845 4.37011 0.123097 3.71393 0.374429 3.10155C0.625761 2.48918 0.996186 1.93281 1.46422 1.46472C1.93225 0.99662 2.48856 0.626116 3.1009 0.374698C3.71324 0.123279 4.3694 -0.00404932 5.03133 9.81544e-05C5.69326 0.00424563 6.34777 0.139787 6.95691 0.398859C7.56605 0.65793 8.11768 1.03538 8.57981 1.5093L8.58081 1.5083Z" fill="#0076FF"/>
</svg>
